<svg width="11" height="11" viewBox="0 0 11 11" fill="none" xmlns="http://www.w3.org/2000/svg">
<path d="M0.32555 1.87857C-0.103936 1.44909 -0.103936 0.751601 0.32555 0.322115C0.755037 -0.107372 1.45252 -0.107372 1.88201 0.322115L5.5 3.94354L9.12143 0.32555C9.55091 -0.103936 10.2484 -0.103936 10.6779 0.32555C11.1074 0.755037 11.1074 1.45252 10.6779 1.88201L7.05646 5.5L10.6744 9.12143C11.1039 9.55091 11.1039 10.2484 10.6744 10.6779C10.245 11.1074 9.54748 11.1074 9.11799 10.6779L5.5 7.05646L1.87857 10.6744C1.44909 11.1039 0.7516 11.1039 0.322114 10.6744C-0.107372 10.245 -0.107372 9.54748 0.322114 9.11799L3.94354 5.5L0.32555 1.87857Z" fill="#636363"/>
</svg>
