<svg width="33" height="33" viewBox="0 0 33 33" fill="none" xmlns="http://www.w3.org/2000/svg">
<g clip-path="url(#clip0_40_24)">
<path d="M1.91976 6.04986C1.25741 6.20501 0.750491 6.74621 0.638092 7.42248C0.525693 8.09875 0.834228 8.7685 1.41211 9.13142L15.0168 17.5678L17.166 26.7431L13.88 27.5128C12.9712 27.7257 12.4089 28.6319 12.6218 29.5407C12.8347 30.4495 13.7409 31.0117 14.6497 30.7988L19.5788 29.6442L24.5078 28.4896C25.4166 28.2768 25.9789 27.3706 25.766 26.4618C25.5531 25.553 24.6469 24.9907 23.7381 25.2036L20.4521 25.9733L18.3028 16.798L26.7392 3.19337C27.1009 2.61036 27.0748 1.87446 26.6737 1.31846C26.2727 0.762462 25.5845 0.506622 24.9221 0.66177L1.91976 6.04986ZM10.7142 10.9226L6.65842 8.40623L21.7229 4.87751L19.2066 8.93329L10.7142 10.9226Z" fill="#131B23"/>
</g>
<defs>
<clipPath id="clip0_40_24">
<rect width="27" height="27" fill="white" transform="translate(0.276886 6.43469) rotate(-13.1833)"/>
</clipPath>
</defs>
</svg>
