<svg width="11" height="12" viewBox="0 0 11 12" fill="none" xmlns="http://www.w3.org/2000/svg">
<path d="M6.34615 1.34615C6.34615 0.878125 5.96803 0.5 5.5 0.5C5.03197 0.5 4.65385 0.878125 4.65385 1.34615V5.15385H0.846154C0.378125 5.15385 0 5.53197 0 6C0 6.46803 0.378125 6.84615 0.846154 6.84615H4.65385V10.6538C4.65385 11.1219 5.03197 11.5 5.5 11.5C5.96803 11.5 6.34615 11.1219 6.34615 10.6538V6.84615H10.1538C10.6219 6.84615 11 6.46803 11 6C11 5.53197 10.6219 5.15385 10.1538 5.15385H6.34615V1.34615Z" fill="#9F9F9F"/>
</svg>
