<svg width="123" height="43" viewBox="0 0 123 43" fill="none" xmlns="http://www.w3.org/2000/svg">
<path d="M18.3383 16.6683C17.2596 15.5629 16.0761 14.7295 14.7809 14.1786C15.0777 13.9597 15.3779 13.6913 15.6746 13.3734C17.085 11.9467 17.7902 10.2269 17.7902 8.21391C17.7902 6.20096 17.0885 4.48112 15.6886 3.05439C14.2887 1.62767 12.5816 0.914307 10.5778 0.914307H0.080368V36.4906H11.4959C14.1805 36.1233 16.4636 34.9897 18.3348 33.0933C20.5725 30.8296 21.6931 28.0962 21.6931 24.8896C21.6931 21.683 20.5725 18.9249 18.3348 16.6612L18.3383 16.6683ZM2.07024 2.90608H10.5533C11.9951 2.90608 13.2275 3.4252 14.2468 4.46699C15.2662 5.50878 15.7759 6.7554 15.7759 8.21744C15.7759 9.67948 15.2697 10.9437 14.2573 11.9679C13.5451 12.6883 12.4664 13.1262 11.0246 13.2781H2.07024V2.91313V2.90608ZM16.8686 31.6772C15.0288 33.5489 12.805 34.4812 10.2042 34.4812H2.07024V15.284H10.2042C12.8085 15.284 15.0288 16.2233 16.8686 18.1021C18.7083 19.9809 19.6299 22.2445 19.6299 24.8967C19.6299 27.5488 18.7083 29.809 16.8686 31.6772Z" fill="url(#paint0_linear_28_35)"/>
<path d="M88.2629 12.9814H73.7124V14.9696H84.8556L73.7124 34.4918H89.1077V32.4788H77.0951L88.2629 12.9814Z" fill="url(#paint1_linear_28_35)"/>
<path d="M117.751 30.2221C115.873 32.1221 113.614 33.0685 110.975 33.0685C108.336 33.0685 106.081 32.1256 104.21 30.2433C102.342 28.361 101.406 26.0832 101.406 23.4134C101.406 23.0285 101.431 22.6647 101.48 22.3257H122.167C122.167 19.5429 121.172 17.138 119.186 15.1109C116.927 12.826 114.19 11.6818 110.979 11.6818C107.767 11.6818 105.072 12.826 102.806 15.1109C100.541 17.3958 99.4061 20.1644 99.4061 23.4134C99.4061 26.6624 100.541 29.3887 102.806 31.6807C105.072 33.9726 107.798 35.1203 110.979 35.1203C114.159 35.1203 116.927 33.9691 119.186 31.6701C119.951 30.9143 120.45 30.3351 120.691 29.9326L118.662 29.2086C118.376 29.5618 118.072 29.9008 117.755 30.2221H117.751ZM104.199 16.5623C106.077 14.6624 108.336 13.7159 110.975 13.7159C113.614 13.7159 115.873 14.6659 117.751 16.5623C118.816 17.6394 119.574 18.9108 120.017 20.3763H101.836C102.297 18.9779 103.086 17.7065 104.199 16.5623Z" fill="url(#paint2_linear_28_35)"/>
<path d="M54.079 6.35632C51.9844 7.93843 50.7068 9.60529 48.689 11.2651C47.4287 12.5576 45.4004 14.6306 43.1557 16.9261C41.1763 15.1462 38.8269 13.5076 36.0969 13.5076C33.154 13.5076 30.63 14.5635 28.5354 16.6789C26.4374 18.7942 25.3901 21.3546 25.3901 24.3634C25.3901 27.3722 27.1321 29.7772 29.1359 31.8678C26.8249 34.2269 24.7303 36.367 23.4526 37.6701C21.8327 39.729 20.9425 40.294 19.3856 42.4164C21.4697 40.8237 22.0108 39.902 24.0321 38.2457C25.3342 36.9144 27.4567 34.7495 29.7887 32.3693C31.6145 33.7572 33.7196 35.1945 36.1004 35.1945C39.0748 35.1945 41.6022 34.1315 43.6864 32.0126C45.7705 29.8902 46.8108 27.3405 46.8108 24.3599C46.8108 21.7466 45.2852 19.4688 43.7108 17.53C45.9764 15.2168 48.0257 13.1297 49.2859 11.8513C50.9092 9.79599 52.536 8.48581 54.0825 6.35278L54.079 6.35632ZM41.5848 32.5353C37.9681 34.9897 32.578 33.2698 29.5478 28.6966C26.5177 24.1233 26.9889 18.427 30.6056 15.9726C34.2223 13.5182 39.6124 15.238 42.6426 19.8113C45.6727 24.3846 45.2015 30.0809 41.5848 32.5353Z" fill="url(#paint3_linear_28_35)"/>
<path d="M31.5342 17.7631C30.2461 18.8437 29.6526 20.2704 30.2077 20.952C30.7662 21.6336 32.2639 21.3122 33.552 20.2316C34.8402 19.151 35.4337 17.7242 34.8786 17.0427C34.3201 16.3611 32.8224 16.6824 31.5342 17.7631Z" fill="url(#paint4_linear_28_35)"/>
<path d="M60.5653 13.4582C57.591 13.4582 55.0635 14.5141 52.9794 16.6294C50.8953 18.7448 49.8549 21.3052 49.8549 24.314C49.8549 27.3228 50.8953 29.8443 52.9794 31.9667C55.0635 34.0892 57.591 35.1486 60.5653 35.1486C63.5396 35.1486 66.0322 34.0856 68.1268 31.9667C70.2249 29.8443 71.2722 27.2946 71.2722 24.314C71.2722 21.3334 70.2249 18.7448 68.1268 16.6294C66.0287 14.5141 63.5082 13.4582 60.5653 13.4582ZM67.1144 28.6436C64.0842 33.2169 58.6941 34.9367 55.0775 32.4823C51.4608 30.0279 50.986 24.3316 54.0197 19.7583C57.0499 15.1851 62.44 13.4688 66.0566 15.9196C69.6733 18.374 70.1481 24.0703 67.1144 28.6436Z" fill="url(#paint5_linear_28_35)"/>
<path d="M65.1245 17.7136C63.8364 16.6329 62.3387 16.3116 61.7802 16.9932C61.2216 17.6747 61.8151 19.1015 63.1067 20.1821C64.3949 21.2627 65.8926 21.5841 66.4511 20.9025C67.0097 20.2209 66.4162 18.7942 65.1245 17.7136Z" fill="url(#paint6_linear_28_35)"/>
<path d="M93.3527 40.9544H95.3426V4.88016L93.3527 0.628235V40.9544Z" fill="url(#paint7_linear_28_35)"/>
<defs>
<linearGradient id="paint0_linear_28_35" x1="10.8867" y1="0.914307" x2="10.8867" y2="36.4906" gradientUnits="userSpaceOnUse">
<stop stop-color="#D7D8E1"/>
<stop offset="0.0572917" stop-color="#D79472"/>
<stop offset="0.505208" stop-color="#C94F6A"/>
<stop offset="1" stop-color="#C2335C"/>
</linearGradient>
<linearGradient id="paint1_linear_28_35" x1="81.41" y1="12.9814" x2="81.41" y2="34.4918" gradientUnits="userSpaceOnUse">
<stop stop-color="#D7D8E1"/>
<stop offset="0.0572917" stop-color="#D79472"/>
<stop offset="0.505208" stop-color="#C94F6A"/>
<stop offset="1" stop-color="#C2335C"/>
</linearGradient>
<linearGradient id="paint2_linear_28_35" x1="110.787" y1="11.6818" x2="110.787" y2="35.1203" gradientUnits="userSpaceOnUse">
<stop stop-color="#D7D8E1"/>
<stop offset="0.0572917" stop-color="#D79472"/>
<stop offset="0.505208" stop-color="#C94F6A"/>
<stop offset="1" stop-color="#C2335C"/>
</linearGradient>
<linearGradient id="paint3_linear_28_35" x1="36.734" y1="6.35278" x2="36.734" y2="42.4164" gradientUnits="userSpaceOnUse">
<stop stop-color="#D7D8E1"/>
<stop offset="0.0572917" stop-color="#D79472"/>
<stop offset="0.505208" stop-color="#C94F6A"/>
<stop offset="1" stop-color="#C2335C"/>
</linearGradient>
<linearGradient id="paint4_linear_28_35" x1="32.5431" y1="16.6851" x2="32.5431" y2="21.3096" gradientUnits="userSpaceOnUse">
<stop stop-color="#D7D8E1"/>
<stop offset="0.0572917" stop-color="#D79472"/>
<stop offset="0.505208" stop-color="#C94F6A"/>
<stop offset="1" stop-color="#C2335C"/>
</linearGradient>
<linearGradient id="paint5_linear_28_35" x1="60.5636" y1="13.4582" x2="60.5636" y2="35.1486" gradientUnits="userSpaceOnUse">
<stop stop-color="#D7D8E1"/>
<stop offset="0.0572917" stop-color="#D79472"/>
<stop offset="0.505208" stop-color="#C94F6A"/>
<stop offset="1" stop-color="#C2335C"/>
</linearGradient>
<linearGradient id="paint6_linear_28_35" x1="64.1156" y1="16.6356" x2="64.1156" y2="21.2601" gradientUnits="userSpaceOnUse">
<stop stop-color="#D7D8E1"/>
<stop offset="0.0572917" stop-color="#D79472"/>
<stop offset="0.505208" stop-color="#C94F6A"/>
<stop offset="1" stop-color="#C2335C"/>
</linearGradient>
<linearGradient id="paint7_linear_28_35" x1="94.3477" y1="0.628235" x2="94.3477" y2="40.9544" gradientUnits="userSpaceOnUse">
<stop stop-color="#D7D8E1"/>
<stop offset="0.0572917" stop-color="#D79472"/>
<stop offset="0.505208" stop-color="#C94F6A"/>
<stop offset="1" stop-color="#C2335C"/>
</linearGradient>
</defs>
</svg>
